<svg width="134" height="30" fill="none" xmlns="http://www.w3.org/2000/svg"><path fill-rule="evenodd" clip-rule="evenodd" d="M80.178 22.51h3.139V11.898h-3.139V22.51zm1.57-11.858a1.839 1.839 0 0 1-1.828-1.826A1.84 1.84 0 0 1 81.748 7a1.84 1.84 0 0 1 1.827 1.826 1.84 1.84 0 0 1-1.827 1.826zM44.59 14.326h-1.956v-3.953h1.957c1.29 0 2.214.73 2.214 1.976s-.924 1.976-2.214 1.976zm5.462-1.998c0-3.094-2.258-4.855-5.526-4.855H39.41V22.51h3.225v-5.327h1.892c3.268 0 5.526-1.783 5.526-4.855zm5.848 1.74c1.268 0 2.236.816 2.364 1.955h-4.75c.128-1.01 1.139-1.955 2.386-1.955zm.15 8.722c2.322 0 4.042-1.075 4.923-2.814l-2.644-1.053c-.494.795-1.118 1.289-2.279 1.289-1.312 0-2.45-.903-2.559-2.149h7.805c.021-.128.043-.408.043-.773 0-3.33-2.215-5.671-5.418-5.671-3.139 0-5.504 2.385-5.504 5.585 0 3.287 2.322 5.586 5.633 5.586zm13.5-7.841c-.172-.086-.473-.13-.796-.13-1.741 0-2.773 1.29-2.773 3.373v4.318h-3.117V11.898h3.095v1.74c.56-1.224 1.677-1.976 3.053-1.976.237 0 .473.042.538.064v3.223zm4.762.73c-.58-.15-.881-.43-.881-.816 0-.43.408-.73.989-.73.644 0 1.354.515 1.677 1.31l2.558-1.354c-.667-1.482-2.386-2.47-4.214-2.47-2.43 0-4.106 1.418-4.106 3.437 0 1.676 1.032 2.793 3.031 3.265l1.247.301c.645.15.968.43.968.795 0 .515-.452.816-1.118.816-.796 0-1.591-.558-1.978-1.44l-2.537 1.397c.71 1.633 2.386 2.6 4.493 2.6 2.473 0 4.278-1.504 4.278-3.63 0-1.505-1.075-2.622-3.074-3.137l-1.333-.344zm14.635 0c-.58-.15-.882-.43-.882-.816 0-.43.409-.73.99-.73.644 0 1.354.515 1.676 1.31l2.559-1.354c-.667-1.482-2.387-2.47-4.214-2.47-2.43 0-4.107 1.418-4.107 3.437 0 1.676 1.032 2.793 3.032 3.265l1.247.301c.645.15.967.43.967.795 0 .515-.451.816-1.118.816-.795 0-1.59-.558-1.978-1.44l-2.537 1.397c.71 1.633 2.387 2.6 4.494 2.6 2.472 0 4.278-1.504 4.278-3.63 0-1.505-1.075-2.622-3.074-3.137l-1.333-.344zm9.625-6.896v3.115h2.688v2.578h-2.688v3.888c0 1.139.495 1.59 1.527 1.59.387 0 .817-.107 1.161-.322v2.707c-.473.236-1.183.43-2.193.43-2.236 0-3.612-1.376-3.612-3.739v-4.554H93.95v-2.578h1.505V8.783h3.117zm8.865 5.285c1.268 0 2.236.816 2.364 1.955h-4.751c.129-1.01 1.14-1.955 2.387-1.955zm.15 8.722c2.322 0 4.042-1.075 4.923-2.814l-2.644-1.053c-.495.795-1.118 1.289-2.279 1.289-1.311 0-2.451-.903-2.559-2.149h7.805c.021-.128.043-.408.043-.773 0-3.33-2.215-5.671-5.418-5.671-3.139 0-5.504 2.385-5.504 5.585 0 3.287 2.322 5.586 5.633 5.586zm9.952-.28H114.4V11.898h3.139v1.353c.645-1.03 1.72-1.632 3.139-1.632 2.43 0 3.913 1.654 3.913 4.34v6.551h-3.139v-5.822c0-1.396-.688-2.19-1.913-2.19-1.204 0-2 .902-2 2.384v5.628zm12.608-10.612V8.783h-3.118v3.115h-1.504v2.578h1.504v4.554c0 2.363 1.376 3.738 3.612 3.738 1.011 0 1.72-.193 2.193-.43v-2.706a2.255 2.255 0 0 1-1.16.322c-1.033 0-1.527-.451-1.527-1.59v-3.888h2.687v-2.578h-2.687zM27.977 4.951a7.283 7.283 0 0 0-1.49-2.597A7.155 7.155 0 0 0 24.12.61a6.841 6.841 0 0 0-5.645-.003c-1.77.798-3.17 2.376-3.804 4.242-.16.466-.271.949-.334 1.437-.067.484-.067.998-.059 1.45l.025 2.794.042 5.587.015 2.794c.002.466-.003.931.004 1.397.003.23.01.47.01.694.002.225-.013.449-.018.674a9.41 9.41 0 0 1-.171 1.344 6.274 6.274 0 0 1-.423 1.298 6.961 6.961 0 0 1-1.57 2.226c-1.336 1.24-3.167 1.917-4.962 1.76a6.302 6.302 0 0 1-2.575-.753A6.533 6.533 0 0 1 2.6 25.78a7.573 7.573 0 0 1-.738-1.164 6.744 6.744 0 0 1-.513-1.284 6.493 6.493 0 0 1-.207-2.728c.067-.45.17-.894.309-1.321a7.79 7.79 0 0 1 .53-1.22 6.74 6.74 0 0 1 .714-1.07c.26-.33.55-.629.87-.883 1.252-1.05 2.911-1.501 4.607-1.508 1.755.003 3.51.03 5.266.02l-.013-1.909c-1.748.039-3.496.16-5.244.293a8.917 8.917 0 0 0-2.842.707 8.01 8.01 0 0 0-1.29.707 7.435 7.435 0 0 0-2.066 2.048 7.704 7.704 0 0 0-.708 1.273 9.07 9.07 0 0 0-.77 2.817 9.387 9.387 0 0 0 .19 2.997 8.57 8.57 0 0 0 1.212 2.806 7.953 7.953 0 0 0 2.225 2.223 7.562 7.562 0 0 0 2.998 1.143c.133.025.265.038.399.052.133.015.266.03.406.034.14.007.278.013.417.01a7.277 7.277 0 0 0 2.06-.298 8.421 8.421 0 0 0 1.557-.627c.5-.26.969-.582 1.41-.943a8.746 8.746 0 0 0 2.126-2.704c.07-.129.132-.26.19-.394.062-.133.117-.268.169-.405.11-.271.199-.551.272-.834.152-.566.247-1.143.31-1.72.023-.288.051-.576.06-.865l.014-.375.017-.35.065-1.396.061-2.794.119-5.587.056-2.794.006-.349.002-.083.003-.059.006-.117a5.02 5.02 0 0 1 .278-1.351 4.86 4.86 0 0 1 .936-1.555 4.38 4.38 0 0 1 1.446-1.064 4.258 4.258 0 0 1 1.743-.37 4.234 4.234 0 0 1 1.76.35 4.468 4.468 0 0 1 1.498 1.066c.422.463.763 1.01.981 1.61.22.6.318 1.255.287 1.913a4.927 4.927 0 0 1-.47 1.9 4.676 4.676 0 0 1-2.92 2.505 4.787 4.787 0 0 1-.974.185l-.125.008c-.046.003-.074.007-.137.008l-.337.01-.674.018-2.51.07-.046 2.193 2.556.035.674.01.337.004.36-.003a6.946 6.946 0 0 0 1.449-.2 6.829 6.829 0 0 0 2.639-1.296 7.224 7.224 0 0 0 1.893-2.313c.943-1.794 1.115-3.986.478-5.91z" fill="#342E39"/></svg>